<svg xmlns="http://www.w3.org/2000/svg" version="1.1" xmlns:xlink="http://www.w3.org/1999/xlink" xmlns:svgjs="http://svgjs.dev/svgjs" viewBox="0 0 640 800" opacity="1"><g stroke-width="2" stroke="#1b1b1b" fill="none" stroke-linecap="round"><path d="M312.9 -110.95Q329.3 -104.46 346.22 -97.98 363.44 -91.4 380.7 -84.55 397.73 -77.31 414.26 -69.56 430.04 -61.24 444.88 -52.33 458.64 -42.84 471.28 -32.86 482.83 -22.53 493.42 -12.01 503.26 -1.5 512.64 8.77 521.87 18.61 531.31 27.82 541.31 36.26 552.2 43.85 564.25 50.55 577.62 56.41 592.43 61.57 608.63 66.21 626.1 70.56 644.59 74.91 663.8 79.54 683.31 84.75 702.69 90.78 721.52 97.82 739.38 106.02 755.93 115.39 770.91 125.88 784.18 137.35 777.56 152.98 766.34 168.6 753.84 184.23 743.74 199.85 739.02 215.48 741.08 231.1 749.29 246.73 761.25 262.35 773.43 277.98 782.23 293.6 785.06 309.23 781.09 324.85 771.48 340.48 759.07 356.1 747.52 371.73 740.24 387.35 739.37 402.98 745.17 418.6 755.93 434.23 768.47 449.85 779.11 465.48 784.69 481.1 783.57 496.73 776.09 512.35 764.45 527.98 752.08 543.61 742.63 559.23 738.89 574.86 741.96 590.48 750.94 606.11 764.41 628.94 754.8 636.86 742.33 640.05 728.2 646.16 712.49 655.36 695.38 667.63 677.17 682.69 658.23 700.04 638.97 719 619.81 738.76 601.14 758.41 583.32 777.08 566.61 793.91 551.2 808.21 537.14 819.44 524.4 827.3 512.86 831.75 502.28 833.01 492.39 831.54 482.87 828.01 473.36 823.29 463.55 818.33 453.15 814.1 441.92 811.57 429.72 811.56 416.46 814.71 402.16 821.45 386.91 831.93 370.87 846 354.25 863.25 337.29 883.02 320.26 904.44 309.45 910.44 298.21 915.63 286.36 919.04 273.8 919.83 260.47 917.38 246.39 911.31 231.63 901.54 216.32 888.25 200.61 871.89 184.69 853.16 168.75 832.88 152.94 812.02 137.43 791.56 122.32 772.43 107.68 755.45 93.52 741.28 79.84 730.33 66.56 722.77 53.59 718.53 40.81 717.27 28.12 718.42 15.38 721.28 2.51 724.98 -10.57 728.63 -23.91 731.37 -37.51 732.38 -51.36 731.03 -65.41 726.86 -79.58 719.63 -93.8 709.33 -107.98 696.19 -122.05 680.66 -122 664.25 -121.95 647.83 -121.91 631.42 -121.89 615.01 -121.91 598.6 -121.95 582.18 -122.01 565.77 -122.06 549.36 -122.09 532.95 -122.1 516.53 -122.07 500.12 -122.02 483.71 -121.97 467.3 -121.92 450.88 -121.89 434.47 -121.9 418.06 -121.93 401.65 -121.98 385.23 -122.04 368.82 -122.08 352.41 -122.1 336 -122.08 319.59 -122.05 303.17 -121.99 286.76 -121.94 270.35 -121.9 253.94 -121.89 237.53 -121.91 221.11 -121.96 204.7 -122.01 188.29 -122.06 171.88 -122.09 155.47 -107.92 150.23 -93.77 143.87 -79.72 136.31 -65.83 127.57 -52.15 117.76 -38.71 107.08 -25.49 95.77 -12.45 84.12 0.46 72.42 13.36 60.96 26.34 50 39.52 39.74 52.99 30.31 66.84 21.78 81.1 14.15 95.8 7.32 110.9 1.17 126.33 -4.48 141.98 -9.87 157.7 -15.21 173.34 -20.7 188.72 -26.52 203.67 -32.84 218.08 -39.72 231.83 -47.23 244.88 -55.34 257.24 -63.99 268.98 -73.07 280.21 -82.45 291.13 -91.99 307.42 -106.24 312.9 -110.95" stroke-dasharray="1 4" transform="rotate(0, 320, 400)" opacity="0.89"></path><path d="M320.13 -91.42Q336.51 -85.4 352.83 -79.39 368.88 -73.24 384.42 -66.81 399.27 -59.98 413.26 -52.64 426.3 -44.72 438.36 -36.2 449.49 -27.08 459.79 -17.44 469.44 -7.4 478.68 2.89 487.78 13.25 497.05 23.47 506.78 33.35 517.26 42.69 528.71 51.34 541.3 59.18 555.15 66.16 570.24 72.26 586.5 77.57 603.77 82.22 621.78 86.4 640.22 90.33 658.74 94.3 676.97 98.57 694.54 103.41 711.11 109.06 726.43 115.7 740.29 123.44 752.62 132.34 763.43 142.35 754.28 157.19 742.58 172.03 731.55 186.86 724.18 201.7 722.5 216.54 726.96 231.37 736.34 246.21 748.09 261.05 758.99 275.88 766.06 290.72 767.38 305.56 762.57 320.4 752.97 335.23 741.18 350.07 730.43 364.91 723.66 379.74 722.71 394.58 727.85 409.42 737.67 424.25 749.49 439.09 760.08 453.93 766.54 468.77 767.12 483.6 761.64 498.44 751.62 513.28 739.79 528.11 729.37 542.95 723.22 557.79 723.02 572.63 728.82 587.46 740.98 610.36 734.05 622.03 723.95 628.32 712.46 637.42 699.49 649.28 685.07 663.66 669.32 680.12 652.47 698.06 634.79 716.79 616.63 735.53 598.33 753.49 580.25 769.94 562.72 784.22 546.01 795.84 530.33 804.46 515.81 809.98 502.49 812.49 490.32 812.32 479.18 809.99 468.88 806.16 459.17 801.63 449.77 797.25 440.41 793.88 430.81 792.33 420.71 793.25 409.92 797.18 398.3 804.42 385.78 815.05 372.34 828.9 358.04 845.59 343.01 864.52 327.4 884.91 315.87 890.45 303.6 895.3 290.56 898.58 276.79 899.56 262.36 897.67 247.39 892.53 232.06 884.03 216.52 872.26 200.97 857.56 185.56 840.47 170.44 821.67 155.72 801.97 141.48 782.23 127.75 763.28 114.5 745.9 101.71 730.75 89.27 718.32 77.09 708.89 65.06 702.55 53.05 699.15 40.96 698.34 28.69 699.61 16.19 702.3 3.41 705.67 -9.65 708.92 -22.97 711.31 -36.51 712.14 -50.19 710.85 -63.94 707.02 -77.69 700.43 -91.37 691.06 -104.91 679.07 -105.09 663.13 -105.24 647.2 -105.33 631.27 -105.33 615.34 -105.23 599.41 -105.07 583.47 -104.89 567.54 -104.74 551.61 -104.66 535.68 -104.67 519.75 -104.77 503.82 -104.93 487.88 -105.11 471.95 -105.25 456.02 -105.33 440.09 -105.32 424.16 -105.22 408.23 -105.05 392.29 -104.87 376.36 -104.73 360.43 -104.66 344.5 -104.68 328.57 -104.78 312.64 -104.95 296.7 -105.13 280.77 -105.27 264.84 -105.34 248.91 -105.31 232.98 -105.2 217.05 -105.03 201.12 -104.85 185.18 -104.72 169.25 -91.07 162.99 -77.4 155.55 -63.78 146.97 -50.3 137.36 -37 126.9 -23.93 115.83 -11.1 104.41 1.47 92.92 13.87 81.64 26.12 70.8 38.33 60.63 50.6 51.25 63.02 42.76 75.71 35.15 88.75 28.39 102.21 22.36 116.11 16.9 130.46 11.82 145.22 6.91 160.29 1.97 175.57 -3.19 190.91 -8.76 206.15 -14.85 221.13 -21.54 235.69 -28.86 249.7 -36.78 263.06 -45.25 275.73 -54.15 287.68 -63.36 298.99 -72.74 314.94 -86.78 320.13 -91.42" stroke-dasharray="4 5" transform="rotate(3.4, 320, 400)" opacity="0.21"></path><path d="M327.3 -71.9Q342.32 -66.33 356.81 -60.76 370.65 -55.04 383.71 -49.03 395.93 -42.62 407.31 -35.7 417.89 -28.2 427.79 -20.09 437.16 -11.38 446.21 -2.12 455.17 7.57 464.3 17.59 473.85 27.75 484.05 37.87 495.1 47.74 507.14 57.18 520.27 66.03 534.51 74.14 549.79 81.43 565.99 87.86 582.91 93.44 600.3 98.27 617.88 102.47 635.32 106.23 652.3 109.79 668.55 113.38 683.78 117.27 697.82 121.7 710.53 126.9 721.88 133.04 731.91 140.24 740.76 148.57 730.32 162.68 719.29 176.8 710.45 190.92 706.03 205.04 707.16 219.15 713.53 233.27 723.55 247.39 734.69 261.51 744.14 275.63 749.51 289.74 749.45 303.86 743.98 317.98 734.47 332.1 723.33 346.22 713.36 360.33 707.08 374.45 706.07 388.57 710.59 402.69 719.5 416.81 730.55 430.92 740.95 445.04 748.08 459.16 750.14 473.28 746.62 487.4 738.39 501.51 727.54 515.63 716.8 529.75 708.88 543.87 705.78 557.99 708.28 572.11 715.75 586.22 726.31 600.34 719.11 604.52 711.5 611.15 703.17 620.33 693.84 631.98 683.33 645.85 671.53 661.57 658.43 678.61 644.09 696.36 628.66 714.15 612.33 731.3 595.37 747.16 578.08 761.16 560.76 772.82 543.7 781.84 527.17 788.06 511.39 791.51 496.53 792.42 482.69 791.15 469.89 788.25 458.11 784.35 447.23 780.19 437.1 776.51 427.52 774.03 418.25 773.43 409.06 775.24 399.71 779.86 389.99 787.52 379.72 798.23 368.77 811.82 357.06 827.92 344.55 846 331.27 865.38 318.38 870.48 304.78 874.99 290.58 878.13 275.9 879.26 260.9 877.86 245.75 873.57 230.62 866.23 215.66 855.9 201.01 842.8 186.78 827.34 173.04 810.08 159.81 791.68 147.09 772.86 134.84 754.38 122.97 736.94 111.39 721.18 100 707.61 88.68 696.59 77.31 688.34 65.81 682.86 54.08 679.98 42.09 679.39 29.79 680.6 17.21 683.04 4.35 686.05 -8.72 688.97 -21.96 691.12 -35.28 691.91 -48.61 690.84 -61.89 687.53 -75.05 681.75 -88.05 673.46 -88.43 658.08 -88.7 642.71 -88.78 627.34 -88.67 611.96 -88.39 596.59 -88.01 581.22 -87.62 565.84 -87.33 550.47 -87.21 535.1 -87.28 519.73 -87.53 504.35 -87.9 488.98 -88.3 473.61 -88.61 458.23 -88.77 442.86 -88.74 427.49 -88.52 412.11 -88.16 396.74 -87.76 381.37 -87.43 366 -87.23 350.62 -87.23 335.25 -87.42 319.88 -87.76 304.51 -88.15 289.13 -88.51 273.76 -88.74 258.39 -88.78 243.01 -88.62 227.64 -88.3 212.27 -87.91 196.9 -87.54 181.52 -74.39 174.11 -61.18 165.6 -47.99 156.11 -34.87 145.83 -21.9 134.97 -9.14 123.78 3.38 112.53 15.65 101.47 27.66 90.83 39.45 80.82 51.08 71.57 62.61 63.17 74.16 55.65 85.81 48.98 97.67 43.07 109.85 37.8 122.41 32.98 135.41 28.43 148.88 23.94 162.8 19.34 177.13 14.43 191.78 9.07 206.65 3.16 221.6 -3.35 236.46 -10.5 251.09 -18.26 265.33 -26.55 279.06 -35.28 292.16 -44.32 304.57 -53.52 321.79 -67.33 327.3 -71.9" stroke-dasharray="0 1" transform="rotate(6.8, 320, 400)" opacity="0.13"></path><path d="M331.25 -52.37Q344.02 -47.25 356.08 -42.1 367.42 -36.8 378.05 -31.21 388.03 -25.23 397.47 -18.74 406.51 -11.68 415.35 -4.01 424.17 4.25 433.19 13.09 442.62 22.41 452.64 32.1 463.42 42 475.09 51.95 487.7 61.76 501.27 71.25 515.76 80.26 531.06 88.62 547.02 96.24 563.43 103.03 580.05 108.98 596.61 114.12 612.85 118.54 628.52 122.36 643.38 125.76 657.25 128.95 669.99 132.17 681.53 135.66 691.88 139.64 701.12 144.33 709.38 149.9 716.89 156.46 706.41 169.94 696.99 183.42 690.82 196.89 689.33 210.37 692.87 223.84 700.61 237.32 710.75 250.8 720.96 264.27 728.84 277.75 732.59 291.23 731.32 304.7 725.33 318.18 716.01 331.65 705.53 345.13 696.31 358.61 690.5 372.08 689.44 385.56 693.38 399.04 701.41 412.51 711.66 425.99 721.75 439.47 729.35 452.94 732.68 466.42 730.98 479.89 724.64 493.37 715.13 506.85 704.66 520.32 695.65 533.8 690.21 547.28 689.59 560.75 693.93 574.23 702.23 587.71 695.12 594.82 688.08 604.21 680.79 615.77 672.97 629.29 664.39 644.38 654.84 660.61 644.2 677.42 632.42 694.26 619.5 710.52 605.52 725.65 590.63 739.14 575.01 750.58 558.88 759.68 542.5 766.27 526.12 770.36 509.99 772.07 494.33 771.69 479.32 769.65 465.11 766.45 451.78 762.71 439.37 759.06 427.84 756.15 417.12 754.57 407.08 754.88 397.58 757.51 388.41 762.74 379.39 770.73 370.31 781.46 361 794.74 351.28 810.23 341.04 827.47 330.17 845.85 316.12 850.54 301.68 854.7 287.01 857.7 272.27 858.94 257.62 857.96 243.19 854.43 229.11 848.18 215.47 839.19 202.33 827.62 189.72 813.77 177.61 798.07 165.97 781.07 154.73 763.36 143.78 745.59 133.04 728.4 122.38 712.38 111.71 698.03 100.91 685.78 89.9 675.89 78.64 668.49 67.07 663.58 55.18 660.98 43 660.4 30.54 661.42 17.87 663.55 5.04 666.21 -7.86 668.83 -20.79 670.84 -33.66 671.7 -46.42 670.97 -59.04 668.3 -71.49 663.46 -71.96 648.72 -72.21 633.99 -72.18 619.25 -71.87 604.51 -71.35 589.78 -70.76 575.04 -70.22 560.3 -69.86 545.56 -69.76 530.83 -69.95 516.09 -70.38 501.35 -70.96 486.62 -71.54 471.88 -71.99 457.14 -72.22 442.41 -72.16 427.67 -71.83 412.93 -71.3 398.2 -70.71 383.46 -70.18 368.72 -69.84 353.99 -69.77 339.25 -69.98 324.51 -70.43 309.78 -71.01 295.04 -71.58 280.3 -72.02 265.57 -72.22 250.83 -72.14 236.09 -71.79 221.36 -71.26 206.62 -70.66 191.88 -58.01 183.36 -45.26 173.94 -32.49 163.79 -19.73 153.12 -7.07 142.17 5.42 131.18 17.72 120.39 29.77 110.01 41.54 100.23 53.05 91.18 64.3 82.95 75.35 75.59 86.26 69.06 97.11 63.31 108.01 58.22 119.04 53.64 130.32 49.39 141.93 45.3 153.94 41.18 166.4 36.84 179.33 32.14 192.73 26.95 206.55 21.19 220.72 14.8 235.12 7.79 249.65 0.19 264.14 -7.92 278.46 -16.47 292.45 -25.32 305.98 -34.34 325.09 -47.89 331.25 -52.37" stroke-dasharray="2 4" transform="rotate(10.2, 320, 400)" opacity="0.38"></path><path d="M330.23 -32.84Q340.67 -28.14 350.54 -23.41 359.9 -18.52 368.87 -13.35 377.59 -7.79 386.21 -1.74 394.9 4.86 403.85 12.06 413.22 19.87 423.15 28.25 433.77 37.15 445.18 46.45 457.41 56.03 470.48 65.75 484.33 75.43 498.88 84.9 513.99 94.01 529.49 102.58 545.17 110.51 560.83 117.68 576.24 124.05 591.17 129.61 605.44 134.38 618.88 138.45 631.35 141.95 642.79 145.04 653.18 147.9 662.56 150.76 678.42 157.65 692.63 166.38 683.23 179.29 676.12 192.2 672.81 205.11 674 218.01 679.45 230.92 687.99 243.83 697.81 256.74 706.82 269.65 713.09 282.55 715.31 295.46 713 308.37 706.64 321.28 697.59 334.18 687.78 347.09 679.29 360 673.93 372.91 672.83 385.82 676.24 398.72 683.42 411.63 692.85 424.54 702.52 437.45 710.38 450.36 714.76 463.27 714.72 476.17 710.27 489.08 702.36 501.99 692.67 514.9 683.26 527.81 676.14 540.71 672.81 553.62 673.99 566.53 679.42 579.44 671.87 589.13 664.76 600.72 657.82 613.96 650.81 628.52 643.46 643.99 635.56 659.91 626.91 675.78 617.38 691.1 606.88 705.38 595.37 718.2 582.88 729.2 569.48 738.12 555.29 744.81 540.49 749.23 525.25 751.49 509.79 751.8 494.32 750.49 479.04 747.97 464.14 744.73 449.79 741.33 436.1 738.3 423.16 736.2 411.01 735.53 399.64 736.7 389 740.05 379 745.81 369.52 754.05 360.42 764.72 351.53 777.65 342.7 792.52 333.77 808.91 324.58 826.32 310.28 830.6 296.02 834.44 281.93 837.27 268.14 838.59 254.74 837.98 241.82 835.13 229.4 829.86 217.51 822.12 206.13 812 195.19 799.72 184.63 785.59 174.36 770.06 164.28 753.6 154.28 736.77 144.26 720.11 134.12 704.16 123.78 689.41 113.18 676.27 102.27 665.07 91.03 656.02 79.48 649.22 67.63 644.62 55.52 642.1 43.2 641.38 30.76 642.11 18.24 643.87 5.72 646.17 -6.72 648.53 -19.07 650.44 -31.26 651.44 -43.29 651.13 -55.14 649.18 -55.56 635.14 -55.66 621.11 -55.39 607.08 -54.83 593.05 -54.09 579.02 -53.32 564.99 -52.7 550.96 -52.35 536.93 -52.35 522.9 -52.69 508.86 -53.31 494.83 -54.08 480.8 -54.82 466.77 -55.39 452.74 -55.66 438.71 -55.57 424.68 -55.15 410.65 -54.48 396.62 -53.7 382.59 -52.99 368.56 -52.49 354.53 -52.3 340.49 -52.48 326.46 -52.97 312.43 -53.68 298.4 -54.46 284.37 -55.13 270.34 -55.56 256.31 -55.66 242.28 -55.4 228.25 -54.83 214.22 -54.09 200.19 -41.96 190.78 -29.71 180.73 -17.38 170.24 -5.02 159.54 7.31 148.84 19.55 138.36 31.64 128.3 43.53 118.82 55.17 110.05 66.53 102.08 77.61 94.94 88.4 88.62 98.96 83.07 109.31 78.19 119.55 73.84 129.74 69.88 139.98 66.13 150.38 62.42 161.02 58.58 171.99 54.46 183.36 49.92 195.18 44.85 207.48 39.2 220.24 32.93 233.45 26.05 247.04 18.6 260.91 10.64 274.96 2.27 289.06 -6.38 303.06 -15.2 323.53 -28.45 330.23 -32.84" stroke-dasharray="5 1" transform="rotate(13.6, 320, 400)" opacity="0.69"></path><path d="M324.7 -13.32Q333.49 -9.02 342.03 -4.69 350.46 -0.2 358.92 4.55 367.53 9.69 376.46 15.3 385.82 21.44 395.72 28.17 406.27 35.48 417.5 43.37 429.46 51.79 442.13 60.66 455.45 69.86 469.34 79.27 483.69 88.75 498.34 98.13 513.12 107.25 527.87 115.97 542.38 124.16 556.48 131.69 570.01 138.5 582.83 144.52 594.82 149.76 605.92 154.24 616.1 158.05 625.38 161.29 641.29 166.66 655.53 171.86 661.76 182.83 656.94 203.2 656.4 215.6 659.87 228 666.66 240.4 675.45 252.81 684.55 265.21 692.17 277.61 696.86 290.01 697.68 302.42 694.5 314.82 687.91 327.22 679.21 339.63 670.07 352.03 662.28 364.43 657.35 376.83 656.23 389.24 659.14 401.64 665.51 414.04 674.12 426.45 683.28 438.85 691.22 451.25 696.41 463.65 697.82 476.06 695.19 488.46 689.03 500.86 680.53 513.27 671.35 525.67 663.26 538.07 657.84 550.47 656.14 562.88 658.48 575.28 650.13 586.93 642.46 599.94 635.29 614 628.41 628.76 621.6 643.79 614.64 658.68 607.32 673 599.48 686.35 590.97 698.36 581.66 708.74 571.51 717.26 560.48 723.79 548.59 728.31 535.92 730.87 522.57 731.65 508.66 730.9 494.35 728.96 479.81 726.24 465.22 723.19 450.74 720.27 436.55 717.95 422.78 716.69 409.54 716.88 396.92 718.86 384.96 722.87 373.68 729.06 363.05 737.47 353.03 748.03 343.52 760.57 334.42 774.8 325.61 790.35 316.96 806.79 303.58 810.68 290.56 814.21 277.99 816.87 265.92 818.23 254.37 817.93 243.32 815.68 232.75 811.3 222.59 804.71 212.78 795.95 203.22 785.17 193.81 772.6 184.46 758.56 175.06 743.47 165.53 727.75 155.79 711.88 145.78 696.32 135.45 681.51 124.8 667.87 113.81 655.73 102.52 645.36 90.94 636.91 79.14 630.47 67.16 626 55.08 623.39 42.96 622.4 30.87 622.76 18.85 624.1 6.96 626.03 -4.76 628.11 -16.31 629.94 -33.4 624.53 -38.94 604.69 -38.39 591.41 -37.56 578.14 -36.62 564.87 -35.76 551.59 -35.13 538.32 -34.86 525.05 -35.01 511.77 -35.53 498.5 -36.34 485.23 -37.28 471.96 -38.16 458.68 -38.81 445.41 -39.1 432.14 -38.99 418.86 -38.49 405.59 -37.69 392.32 -36.76 379.04 -35.87 365.77 -35.2 352.5 -34.87 339.23 -34.96 325.95 -35.44 312.68 -36.21 299.41 -37.14 286.13 -38.04 272.86 -38.73 259.59 -39.09 246.32 -39.03 233.04 -38.58 219.77 -37.82 206.5 -26.26 196.54 -14.56 186.24 -2.73 175.81 9.17 165.44 21.12 155.33 33.05 145.65 44.91 136.56 56.64 128.16 68.17 120.52 79.46 113.69 90.49 107.65 101.22 102.35 111.65 97.71 121.81 93.62 131.72 89.93 141.43 86.5 151.02 83.16 160.56 79.75 170.15 76.13 179.88 72.15 189.83 67.72 200.08 62.75 210.73 57.18 221.8 51.01 233.34 44.24 245.36 36.93 257.83 29.14 270.72 20.96 283.95 12.51 297.43 3.9 317.88 -9.03 324.7 -13.32" stroke-dasharray="5 3" transform="rotate(17, 320, 400)" opacity="0.64"></path><path d="M317.09 6.19Q325.32 10.1 333.68 14.05 342.29 18.16 351.24 22.52 360.65 27.24 370.59 32.4 381.1 38.08 392.23 44.31 403.96 51.11 416.29 58.48 429.14 66.39 442.43 74.77 456.06 83.53 469.9 92.57 483.8 101.76 497.62 110.95 511.2 120.01 524.4 128.79 537.08 137.16 549.14 145 560.48 152.2 571.04 158.71 580.81 164.46 589.81 169.47 605.43 177.08 619.52 183.04 632.62 187.6 646.21 192.35 641.24 204.29 639.57 216.23 641.51 228.17 646.7 240.11 654.24 252.05 662.8 263.99 670.86 275.94 677 287.88 680.15 299.82 679.74 311.76 675.85 323.7 669.17 335.64 660.87 347.59 652.41 359.53 645.29 371.47 640.77 383.41 639.63 395.35 642.09 407.29 647.7 419.23 655.48 431.18 664.06 443.12 671.92 455.06 677.67 467 680.31 478.94 679.37 490.88 675.01 502.83 668.01 514.77 659.59 526.71 651.24 538.65 644.44 550.59 640.38 562.54 639.77 574.48 630.47 587.25 621.96 600.81 614.14 614.83 606.86 628.97 599.96 642.85 593.25 656.12 586.57 668.45 579.72 679.54 572.55 689.15 564.91 697.1 556.69 703.28 547.78 707.67 538.15 710.32 527.75 711.37 516.62 711.02 504.79 709.55 492.35 707.3 479.4 704.62 466.05 701.93 452.45 699.61 438.74 698.06 425.07 697.64 411.56 698.65 398.34 701.36 385.53 705.93 373.19 712.47 361.4 720.98 350.18 731.37 339.53 743.48 329.44 757.05 319.84 771.77 310.68 787.26 299.1 790.79 288.03 794 277.46 796.49 267.36 797.87 257.69 797.82 248.38 796.1 239.34 792.51 230.51 786.96 221.76 779.47 213.03 770.11 204.2 759.05 195.22 746.53 186 732.86 176.5 718.39 166.68 703.51 156.52 688.62 146.03 674.1 135.22 660.32 124.13 647.63 112.8 636.3 101.29 626.55 89.65 618.51 77.95 612.24 66.25 607.74 54.61 604.9 43.07 603.55 31.69 603.45 20.47 604.32 9.44 605.82 -1.38 607.61 -17.25 603.73 -21.95 585.65 -21.09 573.17 -20.04 560.69 -18.97 548.2 -18.09 535.72 -17.54 523.24 -17.42 510.75 -17.76 498.27 -18.48 485.79 -19.47 473.3 -20.55 460.82 -21.54 448.34 -22.24 435.85 -22.55 423.37 -22.41 410.89 -21.84 398.4 -20.94 385.92 -19.88 373.44 -18.83 360.95 -17.99 348.47 -17.5 335.99 -17.44 323.5 -17.84 311.02 -18.62 298.54 -19.63 286.05 -20.71 273.57 -21.66 261.09 -22.32 248.6 -22.56 236.12 -22.35 223.64 -21.72 211.16 -10.8 201.08 0.27 190.96 11.52 180.97 22.89 171.3 34.36 162.08 45.89 153.45 57.43 145.49 68.91 138.28 80.29 131.83 91.51 126.14 102.52 121.16 113.27 116.82 123.74 113 133.91 109.6 143.78 106.47 153.36 103.46 162.69 100.44 171.82 97.25 180.8 93.77 189.72 89.89 198.65 85.52 207.67 80.6 216.89 75.1 226.38 69.01 236.2 62.36 246.43 55.18 257.1 47.57 268.23 39.59 279.84 31.35 291.88 22.97 310.71 10.37 317.09 6.19" stroke-dasharray="4 1" transform="rotate(20.4, 320, 400)" opacity="0.21"></path><path d="M310.76 25.72Q319.43 29.26 328.49 32.84 337.99 36.57 347.98 40.54 358.49 44.85 369.52 49.58 381.04 54.78 393.03 60.5 405.42 66.78 418.12 73.61 431.04 80.97 444.06 88.82 457.07 97.08 469.94 105.67 482.55 114.49 494.79 123.41 506.54 132.3 517.74 141.04 528.3 149.49 538.19 157.54 547.41 165.08 555.95 172.01 563.88 178.29 571.25 183.85 584.65 192.54 597.47 199.32 610.82 203.85 625.38 207.83 623.1 219.33 623.98 230.84 627.9 242.34 634.22 253.85 641.94 265.35 649.83 276.85 656.63 288.36 661.25 299.86 662.97 311.36 661.5 322.87 657.09 334.37 650.42 345.87 642.58 357.38 634.8 368.88 628.32 380.39 624.19 391.89 623.05 403.39 625.09 414.9 629.98 426.4 636.95 437.9 644.88 449.41 652.51 460.91 658.62 472.41 662.25 483.92 662.8 495.42 660.2 506.92 654.86 518.43 647.62 529.93 639.65 541.43 632.21 552.94 626.49 564.44 623.4 575.94 613.19 588.94 603.77 602.19 595.09 615.37 587.08 628.19 579.64 640.35 572.63 651.59 565.94 661.67 559.4 670.39 546.07 682.51 531.95 689.94 515.45 690.47 497.11 687.99 486.83 685.68 475.93 683.26 464.47 681.07 452.53 679.44 440.19 678.68 427.57 679.07 414.78 680.85 401.92 684.2 389.13 689.25 376.5 696.05 364.13 704.57 352.11 714.74 340.51 726.38 329.36 739.29 318.69 753.18 308.51 767.74 299.02 770.91 289.94 773.83 272.86 776.9 256.36 776.39 248.24 773.5 240.06 768.91 231.74 762.58 223.21 754.55 214.43 744.94 205.34 733.92 195.92 721.71 186.17 708.59 176.09 694.87 165.7 680.87 155.04 666.93 144.13 653.38 133.05 640.52 121.85 628.63 110.57 617.94 99.3 608.64 88.06 600.84 76.93 594.61 65.93 589.94 55.11 586.77 44.47 584.96 34.03 584.33 23.78 584.66 13.71 585.68 -0.83 582.04 -4.62 565.28 -3.49 553.59 -2.29 541.9 -1.19 530.22 -0.38 518.53 0 506.85 -0.07 495.16 -0.62 483.47 -1.55 471.79 -2.7 460.1 -3.9 448.41 -4.95 436.73 -5.69 425.04 -6 413.35 -5.83 401.67 -5.2 389.98 -4.22 378.29 -3.05 366.61 -1.86 354.92 -0.85 343.23 -0.19 331.55 0.03 319.86 -0.22 308.17 -0.92 296.49 -1.95 284.8 -3.14 273.11 -4.31 261.42 -5.27 249.74 -5.86 238.05 -5.99 226.36 -5.65 214.68 4.57 204.94 14.97 195.42 25.53 186.25 36.27 177.58 47.15 169.49 58.15 162.07 69.23 155.36 80.34 149.38 91.45 144.11 102.48 139.51 113.4 135.51 124.15 132.01 134.68 128.91 144.95 126.08 154.94 123.39 164.63 120.7 174.01 117.9 183.11 114.85 191.94 111.45 200.54 107.61 208.97 103.27 217.3 98.39 225.59 92.94 233.93 86.92 242.4 80.38 251.07 73.36 260.03 65.92 269.32 58.15 279.02 50.14 289.14 42 305.24 29.77 310.76 25.72" stroke-dasharray="1 2" transform="rotate(23.8, 320, 400)" opacity="0.42"></path><path d="M308.5 45.24Q318.11 48.43 328.16 51.66 338.63 55.04 349.53 58.63 360.81 62.54 372.42 66.82 384.3 71.55 396.36 76.77 408.53 82.51 420.7 88.78 432.78 95.57 444.66 102.85 456.25 110.56 467.47 118.64 478.23 127.01 488.49 135.55 498.19 144.17 507.31 152.75 515.85 161.17 523.84 169.32 531.31 177.08 538.32 184.37 551.26 196.89 563.72 207.45 576.61 214.78 590.49 220.41 602.62 228.89 609.97 246.38 615.27 257.45 622.1 268.51 629.49 279.58 636.38 290.64 641.79 301.71 644.93 312.77 645.36 323.84 643.01 334.9 638.23 345.97 631.7 357.03 624.35 368.1 617.23 379.16 611.37 390.23 607.61 401.29 606.48 412.36 608.14 423.42 612.36 434.48 618.53 445.55 625.78 456.61 633.05 467.68 639.31 478.74 643.67 489.81 645.49 500.87 644.53 511.94 640.9 523 635.15 534.06 628.08 545.13 620.71 556.19 614.1 567.26 609.2 578.32 598.29 590.7 588.07 602.85 578.54 614.54 569.69 625.53 561.47 635.61 553.81 644.59 546.64 652.34 539.84 658.76 526.96 666.78 514.17 670.84 500.42 669.61 485.52 666.4 477.24 664.27 468.42 662.28 459.04 660.7 449.13 659.8 438.72 659.82 427.84 660.98 416.57 663.45 404.98 667.37 393.15 672.8 381.19 679.77 369.18 688.24 357.21 698.12 345.38 709.27 333.75 721.5 322.41 734.57 311.4 748.21 296 753.43 280.88 757.15 265.46 755.89 249.45 750.55 240.99 745.28 232.21 738.49 223.1 730.25 213.66 720.68 203.9 709.93 193.86 698.22 183.55 685.77 173.04 672.86 162.36 659.76 151.57 646.73 140.73 634.07 129.89 622.01 119.11 610.8 108.42 600.62 97.87 591.64 87.48 583.97 77.28 577.66 67.28 572.73 57.49 569.13 47.89 566.79 38.46 565.56 29.2 565.28 15.97 560.78 13.06 544.91 14.37 534.01 15.62 523.1 16.64 512.2 17.28 501.3 17.46 490.39 17.13 479.49 16.36 468.58 15.25 457.68 13.96 446.78 12.67 435.87 11.57 424.97 10.83 414.06 10.53 403.16 10.73 392.25 11.4 381.35 12.44 370.45 13.7 359.54 15.01 348.64 16.17 337.73 17.02 326.83 17.43 315.92 17.36 305.02 16.8 294.12 15.84 283.21 14.62 272.31 13.3 261.4 12.09 250.5 11.15 239.59 10.62 228.69 10.57 217.78 20.06 208.81 29.7 200.26 39.52 192.21 49.52 184.76 59.69 177.95 70.02 171.83 80.49 166.39 91.07 161.61 101.73 157.45 112.41 153.83 123.08 150.69 133.68 147.91 144.17 145.38 154.49 143 164.6 140.63 174.47 138.16 184.06 135.48 193.35 132.49 202.34 129.12 211.04 125.29 219.46 120.95 227.63 116.08 235.59 110.67 243.4 104.73 251.12 98.3 258.82 91.43 266.56 84.19 274.43 76.64 282.49 68.88 290.82 61 303.99 49.17 308.5 45.24" stroke-dasharray="5 0" transform="rotate(27.2, 320, 400)" opacity="0.22"></path><path d="M311.31 64.77Q321.68 67.63 332.36 70.52 343.29 73.55 354.43 76.78 365.7 80.29 377.04 84.15 388.37 88.42 399.62 93.14 410.69 98.34 421.53 104.04 432.05 110.23 442.2 116.91 451.93 124.03 461.19 131.54 469.97 139.37 478.26 147.46 486.08 155.7 493.43 164 500.38 172.26 506.97 180.36 513.27 188.22 519.38 195.74 531.42 209.12 543.74 220.84 557.49 229.48 572.6 236.32 581.11 238.8 590.24 240.86 592.67 251.46 597.2 262.07 603.23 272.67 610.01 283.28 616.65 293.88 622.31 304.49 626.27 315.1 628.02 325.7 627.34 336.31 624.31 346.91 619.32 357.52 613.01 368.12 606.18 378.73 599.72 389.33 594.44 399.94 591.03 410.54 589.91 421.15 591.24 431.75 594.83 442.36 600.24 452.96 606.77 463.57 613.58 474.17 619.81 484.78 624.65 495.39 627.49 505.99 627.97 516.6 626.01 527.2 621.88 537.81 616.11 548.41 609.42 559.02 602.68 569.62 596.74 580.23 585.47 591.26 574.73 601.73 564.54 611.48 554.95 620.33 545.94 628.16 537.51 634.86 522.43 644.08 508.61 649.76 496.06 650.28 483.7 648.56 470.76 645.04 456.98 641.79 441.24 641.2 424.15 643.38 414.81 646.47 405.04 650.85 394.89 656.57 384.4 663.62 373.63 671.97 362.65 681.53 351.53 692.15 340.35 703.69 329.17 715.94 318.08 728.68 303.96 733.36 289.4 736.8 273.62 736.08 256.92 731.92 248.01 727.6 238.8 721.94 229.29 714.98 219.53 706.79 209.54 697.48 199.38 687.19 189.09 676.1 178.72 664.41 168.33 652.34 157.96 640.12 147.65 627.98 137.46 616.13 127.4 604.79 117.52 594.16 107.83 584.4 98.34 575.65 89.05 568.01 79.96 561.54 71.05 556.28 62.32 552.2 45.28 547.83 28.48 546.21 29.7 536.06 31.08 525.9 32.45 515.75 33.64 505.59 34.48 495.44 34.88 485.28 34.79 475.12 34.21 464.97 33.21 454.81 31.94 444.66 30.54 434.5 29.2 424.35 28.09 414.19 27.35 404.04 27.08 393.88 27.31 383.72 28.01 373.57 29.09 363.41 30.42 353.26 31.82 343.1 33.11 332.94 34.13 322.79 34.76 312.63 34.9 302.48 34.54 292.32 33.73 282.16 32.56 272.01 31.2 261.85 29.81 251.7 28.58 241.54 27.65 231.38 27.15 221.23 35.88 213.38 44.74 206.06 53.75 199.34 62.93 193.23 72.3 187.77 81.84 182.93 91.55 178.71 101.43 175.03 111.44 171.86 121.57 169.09 131.77 166.65 142.01 164.44 152.24 162.34 162.42 160.26 172.5 158.09 182.43 155.74 192.18 153.11 201.71 150.12 210.97 146.73 219.96 142.87 228.66 138.51 237.07 133.65 245.18 128.28 253.03 122.42 260.63 116.12 268.04 109.41 275.28 102.37 282.43 95.07 289.54 87.57 296.68 79.97 307.61 68.56 311.31 64.77" stroke-dasharray="1 1" transform="rotate(30.599999999999998, 320, 400)" opacity="0.10"></path><path d="M317.95 84.3Q328.38 86.84 338.89 89.42 349.43 92.12 359.92 95 370.3 98.13 380.53 101.58 390.53 105.39 400.25 109.61 409.66 114.27 418.7 119.4 427.36 124.99 435.62 131.04 443.46 137.53 450.9 144.43 457.96 151.67 464.66 159.21 471.06 166.97 477.2 174.88 483.15 182.84 488.97 190.77 494.75 198.57 500.57 206.16 506.5 213.45 512.62 220.37 519.01 226.84 525.74 232.82 532.87 238.25 540.45 243.1 548.53 247.38 557.11 251.08 566.22 254.23 575.86 256.86 579.87 266.97 585.26 277.07 591.41 287.18 597.63 297.29 603.21 307.4 607.52 317.51 610.06 327.62 610.56 337.72 608.95 347.83 605.42 357.94 600.36 368.05 594.36 378.16 588.09 388.26 582.26 398.37 577.53 408.48 574.45 418.59 573.36 428.7 574.38 438.8 577.4 448.91 582.07 459.02 587.88 469.13 594.15 479.24 600.17 489.34 605.27 499.45 608.86 509.56 610.54 519.67 610.11 529.78 607.63 539.88 603.38 549.99 597.83 560.1 591.62 570.21 585.46 580.31 574.22 589.49 563.32 597.93 552.81 605.5 542.73 612.12 533.13 617.73 524.03 622.3 507.54 627.85 492.44 630.54 479.21 629.5 466.75 627.07 454.84 624.09 442.79 621.9 429.87 622.73 416.08 626.27 408.59 629.87 400.72 634.62 392.46 640.53 383.82 647.59 374.82 655.76 365.48 664.94 355.85 675.02 345.95 685.86 335.86 697.3 325.61 709.15 311.14 713.31 295.83 716.46 279 716.18 261.3 713.02 251.99 709.55 242.48 704.91 232.8 699.13 222.99 692.23 213.1 684.29 203.17 675.41 193.26 665.71 183.4 655.34 173.63 644.46 163.98 633.25 154.5 621.9 145.18 610.59 136.07 599.51 127.15 588.83 118.43 578.72 109.91 569.31 101.58 560.74 93.41 553.08 85.38 546.42 77.48 540.79 61.93 533.11 46.47 528.3 47.91 518.85 49.36 509.39 50.66 499.94 51.65 490.49 52.23 481.04 52.33 471.58 51.94 462.13 51.1 452.68 49.91 443.22 48.5 433.77 47.03 424.32 45.67 414.87 44.58 405.41 43.87 395.96 43.64 386.51 43.89 377.06 44.61 367.6 45.72 358.15 47.08 348.7 48.55 339.24 49.95 329.79 51.13 320.34 51.96 310.88 52.34 301.43 52.22 291.98 51.63 282.53 50.62 273.07 49.31 263.62 47.86 254.17 46.42 244.71 48.68 227.29 60.27 213.4 68.47 208.06 76.8 203.32 85.3 199.15 93.97 195.52 102.82 192.38 111.85 189.66 121.05 187.3 130.41 185.21 139.92 183.3 149.54 181.48 159.26 179.67 169.02 177.77 178.8 175.69 188.56 173.36 198.24 170.7 207.81 167.67 217.24 164.22 226.47 160.31 235.48 155.92 244.25 151.06 252.74 145.74 260.96 139.98 268.89 133.81 276.54 127.29 283.92 120.47 291.06 113.42 297.99 106.2 304.75 98.9 314.67 87.94 317.95 84.3" stroke-dasharray="1 4" transform="rotate(34, 320, 400)" opacity="0.97"></path><path d="M325.49 103.83Q335.11 106.07 344.61 108.35 353.93 110.73 363.04 113.28 371.9 116.05 380.47 119.1 396.5 126.4 411.52 134.9 424.92 145.51 437.47 157.37 443.34 163.98 449.05 170.9 454.66 178.09 460.22 185.49 465.8 193.02 471.45 200.62 477.25 208.2 483.25 215.7 489.5 223.02 496.07 230.11 503 236.88 510.31 243.27 518.04 249.24 526.21 254.73 534.82 259.71 543.86 264.16 553.31 268.08 563.16 271.48 568.06 281.04 573.65 290.61 579.38 300.17 584.67 309.73 588.99 319.3 591.92 328.86 593.16 338.43 592.58 347.99 590.25 357.56 586.39 367.12 581.4 376.68 575.77 386.25 570.06 395.81 564.84 405.38 560.64 414.94 557.87 424.51 556.81 434.07 557.56 443.63 560.06 453.2 564.05 462.76 569.13 472.33 574.79 481.89 580.48 491.45 585.62 501.02 589.69 510.58 592.31 520.14 593.19 529.71 592.26 539.27 589.6 548.84 585.48 558.4 580.32 567.96 574.63 577.53 563.83 584.59 553.17 590.85 542.73 596.25 532.55 600.76 522.69 604.36 513.19 607.09 495.58 609.7 479.22 610.21 464.83 608.33 451.47 605.79 439.39 603.67 427.77 602.69 416.3 604.89 404.58 609.63 391.96 619.17 378.56 631.68 371.35 639.59 363.82 648.35 355.98 657.86 347.82 668 339.38 678.64 330.66 689.63 314.97 693.29 298.45 696.14 289.74 696.72 280.82 696.61 271.72 695.7 262.47 693.9 253.11 691.16 243.7 687.44 234.26 682.72 224.83 677.02 215.46 670.37 206.18 662.85 197.02 654.52 188 645.51 179.16 635.91 170.49 625.88 162.02 615.54 153.75 605.05 145.67 594.56 137.78 584.22 130.07 574.17 122.51 564.54 115.1 555.47 107.79 547.05 100.58 539.38 93.43 532.52 79.18 521.86 64.89 513.85 66.39 505.05 67.76 496.25 68.84 487.45 69.54 478.64 69.79 469.84 69.56 461.04 68.87 452.24 67.79 443.43 66.43 434.63 64.93 425.83 63.43 417.03 62.09 408.22 61.04 399.42 60.38 390.62 60.18 381.82 60.46 373.01 61.19 364.21 62.3 355.41 63.68 346.61 65.19 337.8 66.68 329 68 320.2 69.01 311.4 69.63 302.59 69.78 293.79 69.46 284.99 68.68 276.18 67.54 267.38 66.14 258.58 64.63 249.78 66.14 234.05 76.46 222.63 91.43 215.41 106.76 209.57 122.88 205.48 139.51 202.02 148.13 200.47 156.92 198.89 165.86 197.22 174.93 195.37 184.1 193.29 193.35 190.91 202.64 188.18 211.95 185.06 221.22 181.52 230.43 177.55 239.53 173.14 248.5 168.3 257.29 163.03 265.88 157.38 274.24 151.37 282.35 145.05 290.2 138.47 297.78 131.7 305.08 124.78 312.12 117.79 322.2 107.3 325.49 103.83" stroke-dasharray="4 3" transform="rotate(37.4, 320, 400)" opacity="0.70"></path><path d="M330.61 123.35Q346.7 127.31 361.79 131.63 375.79 136.72 388.7 142.94 400.65 150.56 411.86 159.72 422.61 170.46 433.27 182.62 444.21 195.96 455.83 210.08 468.44 224.52 482.31 238.74 497.6 252.24 514.32 264.53 532.39 275.24 551.58 284.11 561.91 302.04 570.9 319.98 575.5 337.92 574.14 355.86 567.28 373.8 557.25 391.73 547.48 409.67 541.29 427.61 540.79 445.55 546.15 463.49 555.55 481.42 565.78 499.36 573.36 517.3 575.7 535.24 572.02 553.18 563.55 571.12 543.51 580.25 523.66 586.34 504.43 589.54 486.16 590.28 469.12 589.19 453.44 587.11 439.11 584.96 426.02 583.7 413.96 584.23 402.63 587.3 391.66 593.45 380.72 602.98 369.44 615.85 357.52 631.77 344.76 650.12 331.01 670.1 314.36 673.4 297.03 675.85 279.29 676.5 261.42 674.57 243.69 669.53 226.36 661.15 209.61 649.45 193.56 634.79 178.26 617.75 163.69 599.13 149.75 579.82 136.29 560.79 123.14 542.94 110.1 527.04 96.99 513.71 83.63 503.29 86.13 486.89 87.23 470.48 86.53 454.08 84.29 437.67 81.26 421.27 78.48 404.86 76.89 388.46 77.04 372.05 78.87 355.65 81.76 339.25 84.73 322.84 86.76 306.44 87.17 290.03 85.81 273.63 83.14 257.22 80.09 240.82 93.37 233.99 106.78 228.84 120.5 225 134.67 222.01 149.44 219.36 164.87 216.5 180.98 212.95 197.71 208.29 214.93 202.22 232.47 194.57 250.07 185.33 267.49 174.62 284.47 162.7 300.76 149.9 316.17 136.64 330.61 123.35 330.61 123.35 330.61 123.35" stroke-dasharray="0 3" transform="rotate(40.8, 320, 400)" opacity="0.08"></path><path d="M331.04 142.88Q343.88 146.32 355.86 150.06 367.08 154.46 377.69 159.83 387.93 166.41 398.05 174.36 408.36 183.74 419.13 194.49 430.63 206.44 443.09 219.33 456.65 232.81 471.4 246.45 487.31 259.84 504.26 272.52 522.07 284.12 540.45 294.31 549.57 310.97 556.16 327.62 558.28 344.28 555.3 360.93 548.1 377.59 538.81 394.24 530.16 410.9 524.71 427.56 524.06 444.21 528.4 460.87 536.46 477.53 545.86 494.18 553.82 510.84 558 527.49 557.16 544.15 551.56 560.81 533.49 566.24 515.14 569.26 496.84 570.2 478.95 569.55 461.74 567.96 445.45 566.13 430.22 564.81 416.1 564.74 403.07 566.56 391.02 570.77 379.76 577.72 369.05 587.53 358.64 600.11 348.25 615.18 337.61 632.22 326.5 650.57 309.75 653.41 292.92 655.59 276.25 656.35 259.94 655.05 244.16 651.24 229.03 644.64 214.61 635.21 200.89 623.11 187.81 608.7 175.26 592.51 163.11 575.2 151.17 557.49 139.29 540.13 127.29 523.81 115.06 509.16 102.46 496.63 104.31 481.34 104.59 466.04 103.21 450.75 100.59 435.46 97.49 420.17 94.84 404.88 93.41 389.59 93.62 374.3 95.42 359.01 98.27 343.72 101.33 328.43 103.7 313.13 104.68 297.84 103.98 282.55 101.81 267.26 98.8 251.97 110.97 247.46 123.08 244.12 135.29 241.55 147.77 239.31 160.64 236.98 174.04 234.11 188.04 230.35 202.7 225.4 217.98 219.08 233.83 211.31 250.1 202.13 266.64 191.69 283.22 180.22 299.63 168.03 315.64 155.46 331.04 142.88 331.04 142.88 331.04 142.88" stroke-dasharray="4 0" transform="rotate(44.2, 320, 400)" opacity="0.24"></path><path d="M326.61 162.41Q336.9 165.35 346.77 168.56 356.39 172.32 365.97 176.89 375.71 182.49 385.83 189.27 396.53 197.32 407.98 206.62 420.31 217.1 433.57 228.58 447.79 240.82 462.9 253.52 478.79 266.34 495.27 278.92 512.12 290.9 529.09 301.96 536.26 317.26 540.33 332.56 540.29 347.86 536.13 363.16 528.92 378.45 520.46 393.75 512.9 409.05 508.13 424.35 507.36 439.65 510.79 454.94 517.55 470.24 525.94 485.54 533.83 500.84 539.24 516.14 540.81 531.44 538.14 546.74 522.4 549.26 506.08 550.1 489.42 549.66 472.69 548.43 456.14 546.95 440.02 545.8 424.52 545.55 409.8 546.7 395.95 549.7 382.99 554.87 370.91 562.39 359.61 572.28 348.96 584.43 338.79 598.57 328.92 614.28 319.13 631.05 303.63 633.46 288.53 635.36 273.95 636.17 259.98 635.37 246.66 632.58 234 627.54 221.94 620.12 210.4 610.39 199.26 598.54 188.38 584.89 177.62 569.88 166.84 554.03 155.89 537.9 144.68 522.07 133.11 507.07 121.14 493.38 122.12 479.14 121.54 464.9 119.57 450.67 116.69 436.43 113.64 422.19 111.17 407.95 109.92 393.72 110.2 379.48 111.94 365.24 114.7 351.01 117.78 336.77 120.41 322.54 121.92 308.3 121.94 294.06 120.45 279.83 117.84 265.59 129.08 262.84 140.13 260.73 151.1 258.9 162.12 256.98 173.32 254.62 184.84 251.52 196.79 247.42 209.27 242.14 222.33 235.59 235.99 227.75 250.24 218.7 265.01 208.59 280.19 197.62 295.63 186.08 311.17 174.24 326.61 162.41 326.61 162.41 326.61 162.41" stroke-dasharray="4 2" transform="rotate(47.6, 320, 400)" opacity="0.18"></path><path d="M319.26 181.93Q328.23 184.43 337.25 187.14 346.48 190.3 356.07 194.12 366.16 198.8 376.86 204.47 388.26 211.23 400.41 219.1 413.31 228.06 426.93 238.01 441.19 248.81 455.97 260.25 471.12 272.09 486.45 284.06 501.76 295.85 516.86 307.2 521.7 321.09 523.4 334.99 521.62 348.88 516.73 362.77 509.76 376.67 502.21 390.56 495.68 404.46 491.55 418.35 490.71 432.24 493.33 446.14 498.86 460.03 506.12 473.93 513.56 487.82 519.61 501.71 522.98 515.61 522.94 529.5 509.67 530.06 495.68 529.66 481.13 528.67 466.2 527.52 451.08 526.63 435.96 526.44 421.04 527.33 406.47 529.66 392.4 533.68 378.94 539.58 366.17 547.44 354.1 557.23 342.73 568.81 332 581.95 321.84 596.32 312.13 611.52 298.98 613.53 286.4 615.17 274.43 615.98 263.03 615.57 252.17 613.61 241.77 609.88 231.73 604.23 221.93 596.64 212.26 587.18 202.59 576.05 192.8 563.49 182.8 549.86 172.51 535.55 161.86 520.97 150.82 506.56 139.39 492.73 139.4 479.51 138.05 466.3 135.62 453.09 132.63 439.87 129.72 426.66 127.5 413.44 126.44 400.23 126.78 387.01 128.44 373.8 131.06 360.59 134.1 347.37 136.89 334.16 138.86 320.94 139.58 307.73 143.16 287.09 157.65 278.21 167.65 276.62 177.53 274.64 187.4 272 197.36 268.51 207.53 264.01 218 258.41 228.89 251.68 240.26 243.84 252.17 235 264.63 225.29 277.62 214.9 291.12 204.05 305.03 192.98 319.26 181.93 319.26 181.93 319.26 181.93" stroke-dasharray="3 1" transform="rotate(51, 320, 400)" opacity="0.14"></path><path d="M312.23 201.46Q321.02 203.54 330.17 205.79 339.77 208.4 349.88 211.55 360.56 215.37 371.82 220.01 383.67 225.55 396.06 232.04 408.94 239.49 422.22 247.86 435.79 257.08 449.53 267.03 463.3 277.54 476.94 288.43 490.31 299.49 503.29 310.49 505.74 322.96 505.42 335.43 502.39 347.9 497.16 360.37 490.68 372.84 484.07 385.31 478.51 397.78 474.97 410.25 474.08 422.72 476 435.19 480.39 447.66 486.47 460.13 493.17 472.6 499.31 485.07 499.38 503.56 483.36 508.76 471.15 507.92 458.41 507.35 445.27 507.37 431.85 508.26 418.29 510.28 404.72 513.63 391.28 518.47 378.1 524.87 365.27 532.84 352.88 542.34 341 553.23 329.66 565.31 318.87 578.33 308.61 591.99 298.18 593.64 288.23 595.02 278.72 595.8 269.58 595.66 260.71 594.37 252.03 591.71 243.42 587.55 234.8 581.83 226.07 574.56 217.15 565.81 207.97 555.71 198.48 544.48 188.64 532.35 178.44 519.62 167.88 506.58 156.99 493.55 156.08 481.36 154.09 469.17 151.38 456.98 148.43 444.79 145.75 432.6 143.82 420.41 142.97 408.22 143.36 396.03 144.92 383.84 147.37 371.65 150.28 359.46 153.14 347.27 155.45 335.08 156.79 322.89 161.32 304.03 175.27 296.01 184.55 294.26 193.6 291.93 202.49 288.85 211.28 284.9 220.08 280.01 228.96 274.14 238.02 267.31 247.35 259.58 257.02 251.03 267.11 241.8 277.66 232.04 288.69 221.94 306.23 206.57 312.23 201.46" stroke-dasharray="2 2" transform="rotate(54.4, 320, 400)" opacity="0.29"></path><path d="M308.63 220.99Q317.81 222.69 327.43 224.53 337.48 226.64 347.99 229.16 358.91 232.22 370.22 235.91 381.88 240.32 393.8 245.51 405.91 251.51 418.13 258.32 430.34 265.91 442.46 274.22 454.38 283.15 466.01 292.61 477.25 302.44 488.03 312.5 488.38 323.56 486.52 334.62 482.72 345.68 477.53 356.74 471.69 367.8 466.04 378.85 461.38 389.91 458.39 400.97 457.49 412.03 458.81 423.09 462.16 434.15 467.07 445.21 472.82 456.27 478.6 467.33 480.9 483.61 468.86 488.32 458.94 488.11 448.51 488.43 437.61 489.48 426.31 491.44 414.69 494.45 402.82 498.63 390.81 504.03 378.76 510.68 366.74 518.56 354.86 527.59 343.2 537.67 331.81 548.64 320.77 560.31 310.1 572.47 294.26 574.71 278.9 575.68 263.61 572.53 247.93 566.03 239.72 560.67 231.22 554.07 222.42 546.31 213.29 537.48 203.84 527.71 194.08 517.18 184.04 506.08 173.76 494.62 172.09 483.48 169.69 472.34 166.9 461.2 164.13 450.06 161.76 438.92 160.14 427.78 159.51 416.64 159.94 405.5 161.38 394.36 163.63 383.22 166.36 372.08 169.17 360.94 171.67 349.8 173.51 338.66 178.98 321.34 192.57 313.52 201.29 311.33 209.75 308.48 217.96 304.89 225.97 300.49 233.83 295.28 241.59 289.25 249.34 282.44 257.12 274.92 265.03 266.77 273.13 258.11 281.48 249.06 290.15 239.76 303.91 225.67 308.63 220.99" stroke-dasharray="3 2" transform="rotate(57.800000000000004, 320, 400)" opacity="0.56"></path><path d="M310.04 240.52Q319.48 241.88 329.22 243.34 339.25 245.01 349.51 246.98 359.98 249.35 370.59 252.21 381.29 255.61 392.01 259.62 402.69 264.27 413.25 269.59 423.65 275.57 433.8 282.2 443.66 289.43 453.17 297.22 462.3 305.48 471 314.13 469.7 323.81 466.85 333.5 462.76 343.18 457.91 352.86 452.84 362.54 448.12 372.22 444.3 381.9 441.81 391.59 440.93 401.27 441.75 410.95 444.19 420.63 447.97 430.31 452.66 440 457.73 449.68 452.75 466.97 436.1 471.13 427.42 473.19 418.34 476.08 408.9 479.87 399.14 484.61 389.1 490.31 378.84 496.97 368.41 504.53 357.88 512.95 347.31 522.12 336.76 531.94 326.29 542.26 315.96 552.94 302.74 554.73 289.31 555.65 275.08 553.67 260.14 549.3 252.21 545.53 244 540.81 235.51 535.14 226.76 528.56 217.77 521.13 208.56 512.93 199.17 504.07 189.63 494.67 187.46 484.63 184.9 474.59 182.23 464.54 179.76 454.5 177.77 444.46 176.49 434.42 176.06 424.38 176.52 414.34 177.83 404.3 179.84 394.26 182.32 384.22 184.99 374.18 187.55 364.14 189.7 354.1 195.91 338.2 209.1 330.15 225.21 323.65 240.56 315.17 247.84 309.76 254.92 303.71 261.85 297.06 268.67 289.88 275.42 282.24 282.16 274.23 288.93 265.95 295.8 257.5 306.43 244.75 310.04 240.52" stroke-dasharray="1 3" transform="rotate(61.199999999999996, 320, 400)" opacity="0.96"></path><path d="M315.84 260.04Q333.99 262.23 352.45 265 370.9 268.9 389 274.38 406.42 281.79 422.9 291.29 438.23 302.86 452.3 316.31 446.64 333.03 438.38 349.74 430.33 366.45 425.23 383.16 424.82 399.87 429.24 416.58 436.98 433.3 445.41 450.01 433.82 451.82 421.23 455.74 407.47 462.22 392.53 471.54 376.46 483.68 359.45 498.4 341.73 515.2 323.6 533.41 311.52 534.88 298.71 535.6 285.02 534.76 270.4 531.73 254.91 526.07 238.66 517.58 221.84 506.34 204.66 492.62 199.83 474.85 195.4 457.08 192.87 439.31 193.1 421.54 196.02 403.76 200.63 385.99 205.37 368.22 208.6 350.45 224.55 345.33 239.77 338.13 254.17 328.8 267.72 317.47 280.48 304.44 292.6 290.16 304.3 275.16 315.84 260.04 315.84 260.04 315.84 260.04" stroke-dasharray="3 1" transform="rotate(64.6, 320, 400)" opacity="0.97"></path><path d="M323.47 279.57Q339.04 281.21 354.35 283.23 369.2 286.01 383.44 289.86 396.92 295.05 409.55 301.76 421.31 310.08 432.2 319.98 426.14 334.15 419.02 348.32 412.66 362.49 408.65 376.66 408.01 390.83 410.89 405 416.58 419.17 423.63 433.34 414.24 436.94 404.38 442.38 393.87 449.82 382.61 459.31 370.53 470.75 357.64 483.9 343.97 498.43 329.64 513.88 317.84 514.95 305.3 515.55 292.05 515.19 278.18 513.44 263.79 509.95 249.03 504.52 234.04 497.07 219 487.64 214.61 472.29 211.08 456.95 209.28 441.61 209.68 426.26 212.18 410.92 216.14 395.58 220.56 380.24 224.34 364.9 238.71 358.64 252.66 350.76 266.06 341.33 278.84 330.53 290.94 318.6 302.37 305.89 318.33 286.16 323.47 279.57" stroke-dasharray="0 3" transform="rotate(68, 320, 400)" opacity="0.20"></path><path d="M329.57 299.1Q341.58 300.26 353.14 301.66 364.19 303.53 374.69 306.06 384.61 309.44 393.97 313.81 402.8 319.28 411.16 325.9 405.58 337.63 399.9 349.36 395.11 361.1 392.07 372.83 391.31 384.56 392.96 396.3 396.73 408.03 401.96 419.77 394.22 424.73 386.37 431.07 378.28 438.78 369.86 447.83 361.01 458.1 351.68 469.44 341.83 481.61 331.44 494.36 320.04 495.07 308.21 495.54 296.02 495.45 283.55 494.56 270.91 492.64 258.19 489.52 245.5 485.08 232.94 479.27 229.41 466.45 226.86 453.63 225.75 440.81 226.26 427.98 228.31 415.16 231.54 402.34 235.38 389.52 239.15 376.7 251.59 369.79 263.86 361.77 275.87 352.76 287.53 342.9 298.76 332.39 309.54 321.43 324.69 304.68 329.57 299.1" stroke-dasharray="3 1" transform="rotate(71.39999999999999, 320, 400)" opacity="0.26"></path><path d="M331.45 318.62Q347.69 320.43 362.92 322.98 376.64 327.84 389.68 334.62 385.21 343.99 381.05 353.36 377.69 362.74 375.49 372.11 374.71 381.49 375.44 390.86 376.05 407.72 368.16 421.65 361.82 428.92 355.42 436.96 348.91 445.67 342.23 454.98 335.34 464.74 328.18 474.83 318.07 475.26 307.84 475.57 297.53 475.61 287.21 475.24 276.93 474.34 266.74 472.79 256.69 470.51 246.81 467.43 244.38 457.2 242.8 446.96 242.27 436.73 242.84 426.5 244.45 416.27 246.91 406.04 249.95 395.81 253.22 385.57 263.39 378.69 273.55 371.18 283.64 363.13 293.63 354.64 303.44 345.83 313.05 336.81 326.92 323.16 331.45 318.62" stroke-dasharray="1 2" transform="rotate(74.8, 320, 400)" opacity="0.30"></path><path d="M328.28 338.15Q338.93 339.13 349.05 340.57 358.78 342.85 368.3 346.34 362.54 360.46 358.91 374.58 358.33 388.7 360.94 402.83 350.72 413.9 340.84 426.57 331.11 440.5 321.32 455.3 305.7 455.69 290.35 455.65 275.42 454.7 261.03 452.47 258.96 437.22 259.42 421.98 262.29 406.74 266.85 391.5 282.18 379.09 297.65 365.79 313.08 352.01 328.28 338.15 328.28 338.15 328.28 338.15" stroke-dasharray="1 1" transform="rotate(78.2, 320, 400)" opacity="0.40"></path><path d="M321.45 357.68Q339.43 364.69 342.33 379.96 341.6 389.46 342.28 398.96 334.83 407.45 327.64 416.5 320.67 425.98 313.87 435.78 303.97 435.91 294.33 435.93 280.18 430.34 276 414.94 277.76 404.89 280.44 394.85 290.46 385.76 300.67 376.46 316.23 362.36 321.45 357.68" stroke-dasharray="1 2" transform="rotate(81.6, 320, 400)" opacity="0.84"></path></g></svg>